# xmcd
#
# Track frame offsets:
# 150
# 15906
# 40500
# 64237
# 77159
# 97755
# 109378
# 137046
# 144713
# 175215
# 175661
# 187592
# 188837
# 219287
# 229188
# 232197
# 238342
# 254745
#
# Disc length: 3739 seconds
#
# Revision: 0
# Processed by: cddbd v1.5.1PL0 Copyright (c) Steve Scherf et al.
# Submitted via: plextools 2.28
#
DISCID=f30e9912
DTITLE=Kawabata,Atshushi 'Zoffy' - Zoffy Live
DYEAR=1900
DGENRE=Avantgarde
TTITLE0=Kawabata,Atshushi 'Zoffy' - Zoffy
TTITLE1=Kawabata,Atshushi 'Zoffy' - Purple Haze
TTITLE2=Kawabata,Atshushi 'Zoffy' - Angel's Hidden Harakiri
TTITLE3=Kawabata,Atshushi 'Zoffy' - Minestra Zuppa
TTITLE4=Kawabata,Atshushi 'Zoffy' - Only Vertical Gash
TTITLE5=Kawabata,Atshushi 'Zoffy' - Stairway To ...
TTITLE6=Kawabata,Atshushi 'Zoffy' - Bananes Mécaniques
TTITLE7=Kawabata,Atshushi 'Zoffy' - Tout Tout Pour Ma Chérie
TTITLE8=Kawabata,Atshushi 'Zoffy' - Soft Love Machine
TTITLE9=Kawabata,Atshushi 'Zoffy' - Alan Prout
TTITLE10=Kawabata,Atshushi 'Zoffy' - Hades Hardy Girl
TTITLE11=Kawabata,Atshushi 'Zoffy' - Humburger Rock
TTITLE12=Kawabata,Atshushi 'Zoffy' - Stairway To Heaven
TTITLE13=Kawabata,Atshushi 'Zoffy' - Hyderomastgroningem
TTITLE14=Kawabata,Atshushi 'Zoffy' - ... Heaven
TTITLE15=Kawabata,Atshushi 'Zoffy' - Smoke On The Water
TTITLE16=Kawabata,Atshushi 'Zoffy' - Angel's Hidden Harakiri
TTITLE17=Kawabata,Atshushi 'Zoffy' - 21st Century Schizoid Man
EXTD=
EXTT0=
EXTT1=
EXTT2=
EXTT3=
EXTT4=
EXTT5=
EXTT6=
EXTT7=
EXTT8=
EXTT9=
EXTT10=
EXTT11=
EXTT12=
EXTT13=
EXTT14=
EXTT15=
EXTT16=
EXTT17=
PLAYORDER=
